HIERARCHY
ROOT Hips
{
	OFFSET 0.00000 0.00000 0.00000
	CHANNELS 6 Xposition Yposition Zposition Zrotation Yrotation Xrotation 
	JOINT LHipJoint
	{
		OFFSET 0 0 0
		CHANNELS 3 Zrotation Yrotation Xrotation
		JOINT LeftHip
		{
			OFFSET 1.57093 -1.69714 0.87455
			CHANNELS 3 Zrotation Yrotation Xrotation
			JOINT LeftKnee
			{
				OFFSET 2.48056 -6.81529 0.00000
				CHANNELS 3 Zrotation Yrotation Xrotation
				JOINT LeftAnkle
				{
					OFFSET 2.62558 -7.21374 0.00000
					CHANNELS 3 Zrotation Yrotation Xrotation
					JOINT LeftToe
					{
						OFFSET 0.17911 -0.49210 2.16707
						CHANNELS 3 Zrotation Yrotation Xrotation
						End Site
						{
							OFFSET 0.00000 -0.00000 1.11848
						}
					}
				}
			}
		}
	}
	JOINT RHipJoint
	{
		OFFSET 0 0 0
		CHANNELS 3 Zrotation Yrotation Xrotation
		JOINT RightHip
		{
			OFFSET -1.69739 -1.69715 0.87455
			CHANNELS 3 Zrotation Yrotation Xrotation
			JOINT RightKnee
			{
				OFFSET -2.33658 -6.41972 0.00000
				CHANNELS 3 Zrotation Yrotation Xrotation
				JOINT RightAnkle
				{
					OFFSET -2.60856 -7.16696 0.00000
					CHANNELS 3 Zrotation Yrotation Xrotation
					JOINT RightToe
					{
						OFFSET -0.20854 -0.57296 2.11053
						CHANNELS 3 Zrotation Yrotation Xrotation
						End Site
						{
							OFFSET -0.00000 -0.00000 1.09848
						}
					}
				}
			}
		}
	}
	JOINT lowerback
	{
		OFFSET 0 0 0
		CHANNELS 3 Zrotation Yrotation Xrotation
		JOINT Chest
		{
			OFFSET 0.02563 2.15732 -0.03270
			CHANNELS 3 Zrotation Yrotation Xrotation
			JOINT Chest2
			{
				OFFSET 0.00281 2.14662 0.09285
				CHANNELS 3 Zrotation Yrotation Xrotation
				JOINT lowerneck
				{
					OFFSET 0 0 0
					CHANNELS 3 Zrotation Yrotation Xrotation
					JOINT Neck
					{
						OFFSET -0.04440 1.68397 0.17601
						CHANNELS 3 Zrotation Yrotation Xrotation
						JOINT Head
						{
							OFFSET 0.06040 1.66995 -0.35615
							CHANNELS 3 Zrotation Yrotation Xrotation
							End Site
							{
								OFFSET 0.02405 1.72189 -0.14044
							}
						}
					}
				}
				JOINT LeftCollar
				{
					OFFSET 0 0 0
					CHANNELS 3 Zrotation Yrotation Xrotation
					JOINT LeftShoulder
					{
						OFFSET 2.98955 1.90907 -0.21660
CHANNELS 3 Zrotation Xrotation Yrotation
						JOINT LeftElbow
						{
OFFSET 0 -4.913770 0.000000
CHANNELS 3 Zrotation Xrotation Yrotation
							JOINT LeftWrist
							{
OFFSET 0 -3.002910 -0.000000
CHANNELS 3 Zrotation Xrotation Yrotation
								JOINT lhand
								{
									OFFSET 0 0 0
CHANNELS 3 Zrotation Xrotation Yrotation
									JOINT LFingers
									{
OFFSET 0 -0.450920 -0.000000
CHANNELS 3 Zrotation Xrotation Yrotation
										End Site
										{
OFFSET 0 -0.363550 -0.000000
										}
									}
								}
								JOINT LThumb
								{
OFFSET 0 0.000000 0.000000
CHANNELS 3 Zrotation Xrotation Yrotation
									End Site
									{
OFFSET 0 -0.369100 0.369100
									}
								}
							}
						}
					}
				}
				JOINT RightCollar
				{
					OFFSET 0 0 0
					CHANNELS 3 Zrotation Yrotation Xrotation
					JOINT RightShoulder
					{
						OFFSET -2.80452 1.90886 -0.21152
CHANNELS 3 Zrotation Xrotation Yrotation
						JOINT RightElbow
						{
OFFSET 0 -4.867250 0.000000
CHANNELS 3 Zrotation Xrotation Yrotation
							JOINT RightWrist
							{
OFFSET 0 -3.171440 -0.000000
CHANNELS 3 Zrotation Xrotation Yrotation
								JOINT rhand
								{
									OFFSET 0 0 0
CHANNELS 3 Zrotation Xrotation Yrotation
									JOINT RFingers
									{
OFFSET 0 -0.419370 -0.000000
CHANNELS 3 Zrotation Xrotation Yrotation
										End Site
										{
OFFSET 0 -0.338100 -0.000000
										}
									}
								}
								JOINT RThumb
								{
OFFSET 0 0.000000 0.000000
CHANNELS 3 Zrotation Xrotation Yrotation
									End Site
									{
OFFSET 0 -0.343270 0.343270
									}
								}
							}
						}
					}
				}
			}
		}
	}
}
MOTION
Frames: 12
Frame Time: 0.008333333333333333
4.482917 15.069855 9.970255 3.279708 -53.435169 102.468985 0.000000 0.000000 0.000000 -20.576627 -9.331000 -60.125885 12.161330 18.456183 66.497278 1.588689 1.169510 23.495938 0.581382 4.882449 13.573625 0.000000 0.000000 0.000000 14.691545 16.518703 -58.950081 -11.110726 -17.985929 63.137162 -0.621620 -9.291708 14.543142 -1.327518 -7.296263 20.596129 15.248903 5.701345 -26.920668 -9.232216 4.183434 0.524481 -17.714115 3.811334 17.292829 0.275520 -2.114153 -18.215585 8.511726 -3.134299 -6.485824 2.525915 -1.500181 1.167459 0.000000 0.000000 0.000000 173.434431 -21.572314 -32.889530 14.634398 -23.634373 3.077895 58.587876 -148.643464 18.411823 0.000000 0.000000 0.000000 -7.125000 0.000000 0.000000 18.390237 -1.164235 19.800939 0.000000 0.000000 0.000000 -147.971488 -31.525726 -89.682185 -8.680462 -14.649751 -1.117916 -31.781074 42.743112 -0.215812 0.000000 0.000000 0.000000 7.125000 0.000000 0.000000 -4.097233 29.712215 -1.534084
4.739521 15.129441 9.878724 3.656234 -53.311295 100.794699 0.000000 0.000000 0.000000 -20.434259 -8.108369 -63.136642 13.846053 19.066195 71.733317 1.832557 0.304996 25.532920 0.551640 4.757905 13.219463 0.000000 0.000000 0.000000 13.712437 17.369441 -62.850443 -13.127680 -18.827161 69.521004 -0.683994 -11.647989 15.761318 -1.305794 -7.238805 20.424852 15.644826 5.121328 -24.447787 -9.800600 3.706521 0.686005 -19.008590 3.613258 16.148061 1.695951 -1.891588 -17.943668 8.820780 -2.898495 -10.012020 2.405215 -1.601639 -0.094351 0.000000 0.000000 0.000000 175.115303 -25.705136 -60.510385 12.871338 -21.095158 2.408926 56.402774 -185.960416 21.917534 0.000000 0.000000 0.000000 -7.125000 0.000000 0.000000 16.208672 -4.797732 18.229123 0.000000 0.000000 0.000000 -138.298525 -33.234376 -86.735408 -9.557588 -16.044133 -1.350447 -29.812652 38.853144 3.496076 0.000000 0.000000 0.000000 7.125000 0.000000 0.000000 -2.623308 33.997856 -0.710186
4.980513 15.233908 9.792063 4.024253 -53.014675 99.131555 0.000000 0.000000 0.000000 -20.260990 -7.501839 -66.057008 14.683845 19.308505 74.282527 1.895620 0.513464 25.909072 0.517013 4.608358 12.794765 0.000000 0.000000 0.000000 12.834786 18.759646 -65.653452 -13.732326 -19.030808 71.385280 -0.784497 -12.568878 16.916548 -1.133170 -6.760784 19.008727 16.277211 4.604245 -21.654385 -10.461295 3.306300 0.847726 -20.544628 3.442793 14.831701 3.493110 -1.709604 -17.296409 8.952302 -2.708481 -13.713820 2.209898 -1.814708 -1.469263 0.000000 0.000000 0.000000 169.488717 -35.482761 -130.141941 3.424275 -5.906188 0.177254 40.048784 113.268199 15.326624 0.000000 0.000000 0.000000 -7.125000 0.000000 0.000000 8.157556 10.435108 6.615913 0.000000 0.000000 0.000000 -126.906633 -36.714297 -82.482868 -11.636219 -19.256864 -1.980674 -27.527130 23.910380 7.259949 0.000000 0.000000 0.000000 7.125000 0.000000 0.000000 -0.627939 38.154073 -0.105953
5.202266 15.347692 9.728615 3.866062 -53.089110 97.985539 0.000000 0.000000 0.000000 -20.654678 -7.360301 -68.588414 14.396228 19.229630 73.410788 1.827530 1.164374 25.241366 0.548334 4.743957 13.179615 0.000000 0.000000 0.000000 11.639779 20.456656 -67.037317 -12.755927 -18.691451 68.365045 -0.932992 -11.807785 17.949307 -0.895963 -6.032482 16.878867 16.494264 4.002304 -18.763848 -11.044508 2.893381 1.088521 -21.714122 3.193817 13.436625 5.052712 -1.400161 -17.376222 8.808993 -2.361049 -17.256374 2.012025 -1.966790 -2.724705 0.000000 0.000000 0.000000 152.456869 -42.805336 81.009295 11.208331 -18.598670 1.847971 37.948079 -34.647506 9.659927 0.000000 0.000000 0.000000 -7.125000 0.000000 0.000000 7.692954 17.864501 5.007000 0.000000 0.000000 0.000000 -110.633434 -42.288739 -72.148050 -18.150595 -28.337396 -4.626754 -25.298623 -0.576684 10.002849 0.000000 0.000000 0.000000 7.125000 0.000000 0.000000 1.518562 41.014006 0.148732
5.400639 15.416158 9.694521 3.416763 -53.466693 97.163775 0.000000 0.000000 0.000000 -21.013821 -7.938373 -70.170401 12.930758 18.755340 68.908679 1.832069 2.165207 25.012169 0.645898 5.139163 14.306350 0.000000 0.000000 0.000000 10.391247 22.090964 -66.928142 -10.659452 -17.761369 61.666818 -1.022867 -11.418776 18.592304 -0.775575 -5.623005 15.694379 16.084197 3.058229 -16.284535 -10.850881 1.975026 1.597704 -21.526503 2.589414 12.128961 3.378232 -1.380964 -19.101665 9.565737 -1.974846 -20.311747 2.559348 -1.871493 -3.367620 0.000000 0.000000 0.000000 141.090324 -45.394261 66.105676 20.160334 -30.803825 5.628112 38.011462 -54.746349 11.072170 0.000000 0.000000 0.000000 -7.125000 0.000000 0.000000 7.526153 16.110401 5.187345 0.000000 0.000000 0.000000 -99.406475 -49.095169 -61.912497 -25.902985 -37.102823 -8.833002 -24.506462 -15.529426 10.541788 0.000000 0.000000 0.000000 7.125000 0.000000 0.000000 2.279492 41.527569 0.195097
5.565439 15.407581 9.696552 2.620904 -53.903734 96.984895 0.000000 0.000000 0.000000 -20.475967 -9.198396 -70.749920 10.608541 17.735018 61.499564 2.140094 3.336441 26.840660 1.193707 6.928182 19.504525 0.000000 0.000000 0.000000 9.282161 23.645641 -65.803005 -8.083573 -16.175998 52.856057 -1.094224 -10.495434 18.995550 -0.678661 -5.266906 14.671634 15.632666 2.457335 -14.601286 -10.810234 1.432993 1.658833 -21.315586 2.143370 10.949395 1.761734 -1.497327 -20.242337 10.323338 -1.663182 -23.626240 3.013132 -1.829030 -3.985290 0.000000 0.000000 0.000000 128.808006 -47.271527 46.742010 33.856245 -43.925452 14.031166 40.145487 -62.838050 9.933471 0.000000 0.000000 0.000000 -7.125000 0.000000 0.000000 9.154457 17.176491 6.121904 0.000000 0.000000 0.000000 -90.299321 -55.239018 -46.351888 -33.380014 -43.602707 -13.689519 -25.212651 -19.525966 8.285136 0.000000 0.000000 0.000000 7.125000 0.000000 0.000000 1.438406 39.119337 0.208227
5.703547 15.320210 9.714311 1.388611 -54.525361 97.603161 0.000000 0.000000 0.000000 -18.848920 -10.808639 -70.724803 8.297773 16.332214 53.625524 2.471777 3.803448 28.841118 2.056796 8.980479 25.736369 0.000000 0.000000 0.000000 8.315949 25.007794 -64.402957 -5.744438 -14.173115 43.941839 -1.224743 -10.527829 20.025180 -0.528943 -4.660363 12.942460 14.931430 2.387178 -14.002547 -11.399609 1.565432 1.008483 -21.562419 2.016139 9.968439 1.747705 -1.570907 -20.304313 10.767161 -1.581707 -26.057614 3.235659 -1.973037 -4.768428 0.000000 0.000000 0.000000 117.799975 -47.976491 24.108918 54.285465 -54.546892 29.642195 42.311894 -65.934003 10.646601 0.000000 0.000000 0.000000 -7.125000 0.000000 0.000000 10.487981 15.871860 7.345766 0.000000 0.000000 0.000000 -73.511863 -58.770455 -21.433343 -45.220270 -50.861330 -22.413746 -24.064641 -23.910102 4.188493 0.000000 0.000000 0.000000 7.125000 0.000000 0.000000 2.130678 34.559902 0.547523
5.830108 15.169395 9.716913 0.182822 -54.864796 98.462822 0.000000 0.000000 0.000000 -16.158906 -12.255598 -70.749206 7.017329 15.346518 48.939977 2.585293 4.360188 29.424764 2.796424 10.357945 30.143719 0.000000 0.000000 0.000000 9.079740 25.346876 -63.215566 -4.218829 -12.445993 37.328744 -1.494447 -10.737067 22.044219 -0.549573 -4.749289 13.194894 14.139465 2.748852 -14.482776 -11.945349 2.163106 -0.335235 -21.518231 2.065825 9.047833 2.174606 -1.830357 -19.532526 10.561332 -1.971653 -26.825302 3.115030 -2.256749 -5.123401 0.000000 0.000000 0.000000 107.702510 -47.629811 -0.001836 79.428173 -59.571990 50.857848 43.402437 -66.710757 11.493566 0.000000 0.000000 0.000000 -7.125000 0.000000 0.000000 11.048466 14.544322 8.074018 0.000000 0.000000 0.000000 -53.387832 -57.767858 7.605203 -56.226249 -55.217041 -31.220769 -24.463536 -28.132804 -2.531431 0.000000 0.000000 0.000000 7.125000 0.000000 0.000000 1.633177 27.197966 0.706247
5.937854 15.008669 9.694296 0.252924 -54.966824 97.583187 0.000000 0.000000 0.000000 -15.061794 -12.214003 -70.279987 7.015343 15.344596 48.931851 2.442254 4.150802 28.597378 2.275190 9.416033 27.106351 0.000000 0.000000 0.000000 12.486433 23.670372 -61.985744 -3.866077 -11.979905 35.661177 -1.780472 -10.882092 24.020609 -0.862516 -5.920542 16.554390 13.155116 2.797027 -14.746828 -11.865052 2.311219 -1.837743 -20.613471 1.787078 7.555639 0.771550 -2.399501 -18.836893 10.484813 -2.558642 -26.176122 3.292725 -2.355479 -4.934664 0.000000 0.000000 0.000000 96.636392 -45.045795 -25.289203 97.223465 -59.799048 66.251297 44.516043 -69.618619 13.927025 0.000000 0.000000 0.000000 -7.125000 0.000000 0.000000 11.275114 11.086110 9.078146 0.000000 0.000000 0.000000 -36.912822 -48.902568 33.165219 -64.943441 -57.488858 -38.483360 -25.516922 -32.605549 -8.184683 0.000000 0.000000 0.000000 7.125000 0.000000 0.000000 0.970212 20.925065 0.559880
5.990807 14.906155 9.663967 0.796661 -55.182333 96.252070 0.000000 0.000000 0.000000 -16.417811 -9.945553 -69.852791 7.957552 16.086861 52.407986 2.397198 3.960474 28.354946 1.762787 8.352721 23.791011 0.000000 0.000000 0.000000 16.144659 21.359183 -61.169153 -4.495566 -12.790826 38.592668 -1.959661 -10.633739 25.170866 -1.318656 -7.271430 20.522791 11.998038 2.669878 -14.905602 -12.023253 2.229034 -3.372425 -20.008206 1.405630 5.911845 -0.353525 -2.728464 -18.165852 10.464364 -2.827584 -26.016047 3.468418 -2.357729 -4.928133 0.000000 0.000000 0.000000 86.942783 -38.321504 -48.467776 100.554941 -59.574284 69.127753 46.250353 -79.773822 18.637005 0.000000 0.000000 0.000000 -7.125000 0.000000 0.000000 11.304005 4.406930 10.614568 0.000000 0.000000 0.000000 -25.338416 -37.072024 49.342222 -63.613893 -57.195918 -37.364409 -25.238325 -35.156006 -11.108128 0.000000 0.000000 0.000000 7.125000 0.000000 0.000000 1.313376 17.735183 0.851209
5.963996 14.885134 9.668867 0.993855 -55.727205 96.008625 0.000000 0.000000 0.000000 -17.942874 -7.009854 -69.088689 9.377543 17.043245 57.384857 2.361459 3.878403 28.148086 1.365643 7.395500 20.892839 0.000000 0.000000 0.000000 17.629206 20.066459 -60.671378 -5.661958 -14.090718 43.605861 -2.398640 -9.103239 27.857299 -1.762939 -8.352886 23.791531 10.585907 2.638899 -15.717850 -12.411990 2.242548 -4.967356 -19.517517 1.128899 4.628154 -0.852102 -3.024439 -17.796192 9.983326 -3.228283 -26.618720 3.411913 -2.506081 -5.159072 0.000000 0.000000 0.000000 80.780537 -26.929479 -65.637647 91.774200 -59.976018 61.536226 49.682485 -94.806315 23.290589 0.000000 0.000000 0.000000 -7.125000 0.000000 0.000000 12.123721 -2.997789 13.030139 0.000000 0.000000 0.000000 -18.206255 -23.956964 56.627164 -55.260419 -54.899357 -30.431171 -25.619336 -38.387710 -12.891026 0.000000 0.000000 0.000000 7.125000 0.000000 0.000000 1.161063 15.739560 0.802583
5.888609 14.931296 9.719319 0.995913 -56.290552 96.774762 0.000000 0.000000 0.000000 -17.730022 -5.160404 -67.321409 11.002189 17.935221 62.787634 2.382549 4.275379 28.208423 1.284227 7.180862 20.252439 0.000000 0.000000 0.000000 17.511330 19.791787 -60.000792 -7.174835 -15.475833 49.529872 -3.183634 -7.627842 32.379155 -2.022093 -8.911941 25.520368 9.166625 2.612717 -17.088240 -12.696921 2.211009 -6.547302 -18.899312 0.875725 3.629397 -1.366221 -3.403669 -18.269916 9.450113 -3.810095 -26.862700 3.314488 -2.716030 -5.151362 0.000000 0.000000 0.000000 77.509401 -12.995720 -77.478142 70.842848 -58.541371 43.492997 52.582876 -102.757277 26.904780 0.000000 0.000000 0.000000 -7.125000 0.000000 0.000000 12.694323 -9.028556 14.870130 0.000000 0.000000 0.000000 -15.124909 -11.295612 57.637243 -44.564593 -50.542628 -21.905123 -24.299569 -41.046818 -12.513471 0.000000 0.000000 0.000000 7.125000 0.000000 0.000000 2.048710 16.298612 1.390780
